<?xml version="1.0" encoding="utf-8"?>
<!-- Generator: Adobe Illustrator 26.0.3, SVG Export Plug-In . SVG Version: 6.00 Build 0)  -->
<!DOCTYPE svg PUBLIC "-//W3C//DTD SVG 1.1//EN" "http://www.w3.org/Graphics/SVG/1.1/DTD/svg11.dtd" [
	<!ENTITY ns_extend "http://ns.adobe.com/Extensibility/1.0/">
	<!ENTITY ns_ai "http://ns.adobe.com/AdobeIllustrator/10.0/">
	<!ENTITY ns_graphs "http://ns.adobe.com/Graphs/1.0/">
	<!ENTITY ns_vars "http://ns.adobe.com/Variables/1.0/">
	<!ENTITY ns_imrep "http://ns.adobe.com/ImageReplacement/1.0/">
	<!ENTITY ns_sfw "http://ns.adobe.com/SaveForWeb/1.0/">
	<!ENTITY ns_custom "http://ns.adobe.com/GenericCustomNamespace/1.0/">
	<!ENTITY ns_adobe_xpath "http://ns.adobe.com/XPath/1.0/">
]>
<svg version="1.1" id="Слой_1" xmlns:x="&ns_extend;" xmlns:i="&ns_ai;" xmlns:graph="&ns_graphs;"
	 xmlns="http://www.w3.org/2000/svg" xmlns:xlink="http://www.w3.org/1999/xlink" x="0px" y="0px" width="361.8px" height="394.3px"
	 viewBox="0 0 361.8 394.3" style="enable-background:new 0 0 361.8 394.3;" xml:space="preserve">
<style type="text/css">
	.st1{fill:#ff2400;}
	.st2{fill:#ff7433;}
</style>
<metadata>
	<sfw  xmlns="&ns_sfw;">
		<slices></slices>
		<sliceSourceBounds  bottomLeftOrigin="true" height="394.3" width="361.8" x="788.2" y="-737.2"></sliceSourceBounds>
	</sfw>
</metadata>

<g>
	<g>
		<path class="st1" d="M92.8,132.9c-24.4,52.2-38.4,11.1-39,11.1c-10.4,16.1-22.8,51.8-21.9,65.5c18.9-6.2,19.9,27,7.3,33.3
			c-24.6,12.2-20-16.8-22.7-16.5c-2.7,0.3-35.5,118.5,60.7,121c8.5,0.2,48-5.8,56.2-3.7c14.9,3.7,3.5-1.3,18.8-3.9
			c5.1-0.9,10.6,5.3,15-12.8c4.4-18.2-4.7,5.5,5.1,8.6c27.8,8.6,137.8,7.6,143.9,3c9-6.8,32.1-19.3,36.4-55.2
			c1.8-15.3-17.5-59.4-18.2-49.7c-1,14.1-23.7,23.6-30.6-3c-8.5-32.8,24.7-27.4,25.1-28.4c14.7-32.4-17.1-69.4-19.2-69.4
			c-0.6,0-18.3,30.2-22.6-3.7c-2.5-19.6-13.5-40.6-24.7-56.6c-1.9-2.8-15.6-19.7-18.4-19.7c-1.7,0,2.8,26.5-10.5,25.7
			c-20.6-1.3-43.8-52-86.6-69.6c-0.3-0.1,11.9,29.2-14,52.9c-3.2,2.9-32.5,54.9-32.5,62.1"/>
		<path class="st2" d="M264.6,342.3c61.1-12,34-59.5,33.3-59.5c-0.5,0-26.5,29.2-33,0.1c-2-8.9,16.6-39.5,20.2-48.5
			c7.5-18.7,8.3-24.6-0.1-42.3c-0.8-1.8-16.2-25.4-16.7-25.4c-0.3,0,0,27.1-15.9,29.3c-2.7,0.4-2.5-9.5-2.5-11.7
			c0-11.6,0-24.4-1.3-36c-1.1-9.9-1.9-20.2-5.4-29.7c-6.6-17.7-30-35.4-46-44.3c-4.3-2.4-12.5-10.9-17.6-10.9
			c-1.3,0-0.6,0.6-0.8,1.3c-1.9,6.7-6,12.9-9.6,18.8c-13.9,22.6-30.4,44-45.2,66.1c-14.8,22.2-29.7,45.6-41,69.8
			c-4.2,9,7.4,51.3-2,54.3c-27.8,9.2-33.1-17.5-33.3-17.4c-3,1-17.8,90.8,37.3,90.8C85.5,347,259.3,343.3,264.6,342.3z"/>
	</g>
</g>
</svg>
