<?xml version="1.0" standalone="no"?>
<!DOCTYPE svg PUBLIC "-//W3C//DTD SVG 20010904//EN"
 "http://www.w3.org/TR/2001/REC-SVG-20010904/DTD/svg10.dtd">
<svg version="1.0" xmlns="http://www.w3.org/2000/svg"
 width="700.000000pt" height="700.000000pt" viewBox="0 0 700.000000 700.000000"
 preserveAspectRatio="xMidYMid meet">
<metadata>
Created by potrace 1.14, written by Peter Selinger 2001-2017
</metadata>
<g transform="translate(0.000000,700.000000) scale(0.100000,-0.100000)"
fill="#000000" stroke="none">
<path d="M3435 6701 c-93 -23 -172 -92 -205 -180 -20 -54 -21 -71 -18 -411 3
-340 4 -357 25 -400 96 -201 378 -224 501 -40 17 25 35 63 41 85 15 54 15 686
0 740 -38 145 -199 241 -344 206z"/>
<path d="M1451 5754 c-96 -26 -171 -97 -201 -189 -26 -80 -13 -183 30 -246 13
-19 112 -122 219 -229 225 -225 253 -243 365 -244 170 0 290 120 289 289 0
115 -16 139 -240 364 -109 109 -216 210 -238 224 -22 14 -67 30 -99 36 -70 13
-57 13 -125 -5z"/>
<path d="M5420 5760 c-75 -14 -117 -46 -321 -250 -236 -236 -253 -261 -253
-376 0 -167 121 -287 289 -288 113 -1 140 17 375 253 221 221 247 258 254 354
14 187 -158 341 -344 307z"/>
<path d="M3388 4955 c-2 -1 -28 -5 -58 -8 -571 -61 -1063 -476 -1231 -1039 -8
-29 -16 -61 -35 -154 -28 -141 -26 -383 5 -533 72 -343 236 -620 501 -842 36
-29 67 -57 68 -61 2 -5 8 -8 13 -8 6 0 37 -19 71 -41 68 -46 212 -116 303
-147 146 -50 282 -73 445 -77 110 -2 317 16 339 29 4 3 22 8 39 11 127 22 363
131 504 232 72 52 214 183 268 248 215 259 330 574 334 913 4 302 -72 571
-231 815 -231 354 -611 596 -1028 653 -38 5 -302 13 -307 9z"/>
<path d="M493 3776 c-46 -15 -96 -48 -131 -86 -70 -76 -89 -223 -39 -315 33
-62 43 -74 88 -108 73 -55 93 -58 464 -58 371 1 387 3 465 58 41 30 90 98 107
148 16 50 8 155 -16 206 -28 59 -81 112 -140 141 -45 22 -54 23 -401 25 -271
2 -365 -1 -397 -11z"/>
<path d="M5742 3775 c-112 -35 -190 -138 -197 -259 -7 -133 69 -247 197 -292
62 -22 704 -21 767 1 256 90 264 451 13 545 -49 19 -77 20 -395 19 -256 0
-353 -4 -385 -14z"/>
<path d="M1771 2140 c-30 -11 -63 -28 -75 -37 -71 -61 -398 -395 -419 -429
-96 -154 -17 -366 158 -424 74 -25 145 -19 224 17 19 9 128 108 241 222 237
236 254 261 254 376 -1 118 -57 211 -159 260 -70 35 -152 40 -224 15z"/>
<path d="M5043 2141 c-173 -58 -249 -250 -166 -415 20 -38 396 -416 448 -449
43 -27 122 -47 171 -43 199 19 323 227 244 411 -28 65 -419 457 -484 486 -63
28 -149 32 -213 10z"/>
<path d="M3421 1448 c-51 -14 -122 -64 -154 -108 -56 -78 -58 -93 -57 -474 1
-350 1 -351 26 -402 30 -63 79 -113 141 -144 66 -34 177 -34 245 -1 60 29 114
83 142 141 20 43 21 58 21 415 0 369 0 370 -24 418 -28 58 -81 110 -141 138
-50 24 -146 32 -199 17z"/>
</g>
</svg>
